<?xml version="1.0" encoding="UTF-8" standalone="no"?>
<!-- Created with Inkscape (http://www.inkscape.org/) -->

<svg
   width="168.50613mm"
   height="47.999996mm"
   viewBox="0 0 168.50613 47.999996"
   version="1.1"
   id="svg1"
   inkscape:version="1.4.2 (ebf0e940d0, 2025-05-08)"
   sodipodi:docname="logo.svg"
   xmlns:inkscape="http://www.inkscape.org/namespaces/inkscape"
   xmlns:sodipodi="http://sodipodi.sourceforge.net/DTD/sodipodi-0.dtd"
   xmlns="http://www.w3.org/2000/svg"
   xmlns:svg="http://www.w3.org/2000/svg">
  <sodipodi:namedview
     id="namedview1"
     pagecolor="#ffffff"
     bordercolor="#000000"
     borderopacity="0.25"
     inkscape:showpageshadow="2"
     inkscape:pageopacity="0.0"
     inkscape:pagecheckerboard="0"
     inkscape:deskcolor="#d1d1d1"
     inkscape:document-units="mm"
     inkscape:zoom="1.6445146"
     inkscape:cx="356.03211"
     inkscape:cy="273.63698"
     inkscape:window-width="3840"
     inkscape:window-height="2092"
     inkscape:window-x="0"
     inkscape:window-y="0"
     inkscape:window-maximized="1"
     inkscape:current-layer="layer1" />
  <defs
     id="defs1" />
  <g
     inkscape:label="Layer 1"
     inkscape:groupmode="layer"
     id="layer1"
     transform="translate(-10.77528,-37.546997)">
    <g
       id="text1"
       style="font-weight:600;font-size:25.4px;font-family:Poppins;-inkscape-font-specification:'Poppins Semi-Bold';letter-spacing:-0.264583px;opacity:0.999966;fill:#16213e;stroke-width:1.85208"
       aria-label="EthosLink">
      <path
         d="m 73.016303,57.379892 v -2.8956 H 62.729304 v 17.7546 h 10.286999 v -2.8956 h -6.730999 v -4.699 h 5.968999 v -2.8194 h -5.968999 v -4.445 z m 3.520008,-2.6924 v 3.4798 h -1.6764 v 2.921 h 1.6764 v 6.7818 c 0,3.2258 1.8034,4.3688 4.4958,4.3688 h 2.2352 v -2.9972 h -1.651 c -1.1176,0 -1.4986,-0.4064 -1.4986,-1.3462 v -6.8072 h 3.1496 v -2.921 h -3.1496 v -3.4798 z m 9.031829,-1.2446 v 18.796 h 3.556 v -7.7724 c 0,-2.2606 1.2446,-3.4798 3.175,-3.4798 1.8796,0 3.1242,1.2192 3.1242,3.4798 v 7.7724 h 3.556 v -8.255 c 0,-3.8862 -2.3114,-6.0198 -5.4864,-6.0198 -1.8796,0 -3.4544,0.762 -4.3688,1.9558 v -6.477 z m 22.7732,19.0246 c 4.0894,0 7.3406,-2.8448 7.3406,-7.2644 0,-4.445 -3.175,-7.2644 -7.239,-7.2644 -4.064,0 -7.239,2.8194 -7.239,7.2644 0,4.4196 3.0734,7.2644 7.1374,7.2644 z m 0,-3.0988 c -1.905,0 -3.5306,-1.3716 -3.5306,-4.1656 0,-2.8194 1.7018,-4.1656 3.5814,-4.1656 1.8796,0 3.6322,1.3462 3.6322,4.1656 0,2.794 -1.8034,4.1656 -3.683,4.1656 z m 15.07703,3.0988 c 3.429,0 5.5372,-1.8288 5.5372,-4.2418 -0.1016,-5.1562 -7.8994,-3.556 -7.8994,-6.1214 0,-0.8128 0.6858,-1.3462 2.0066,-1.3462 1.397,0 2.2606,0.7366 2.3622,1.8288 h 3.4036 c -0.2032,-2.794 -2.2606,-4.6482 -5.6642,-4.6482 -3.4798,0 -5.5626,1.8796 -5.5626,4.2164 0,5.1562 7.9502,3.556 7.9502,6.0706 0,0.8128 -0.762,1.4478 -2.159,1.4478 -1.4224,0 -2.413,-0.8128 -2.54,-1.8796 h -3.5814 c 0.1524,2.6162 2.6162,4.6736 6.1468,4.6736 z"
         id="path3" />
      <path
         style="fill:#00c4b8"
         d="m 135.16799,54.509692 h -3.556 v 17.7292 h 9.398 v -2.8194 h -5.842 z m 7.838,3.6576 v 14.0716 h 3.556 v -14.0716 z m 1.8034,-1.6764 c 1.2446,0 2.1844,-0.9144 2.1844,-2.0828 0,-1.1684 -0.9398,-2.0828 -2.1844,-2.0828 -1.27,0 -2.1844,0.9144 -2.1844,2.0828 0,1.1684 0.9144,2.0828 2.1844,2.0828 z m 14.84842,7.9756 v 7.7724 h 3.556 v -8.255 c 0,-3.8862 -2.3368,-6.0198 -5.6134,-6.0198 -1.8034,0 -3.3274,0.762 -4.2418,1.9558 v -1.7526 h -3.556 v 14.0716 h 3.556 v -7.7724 c 0,-2.2606 1.2446,-3.4798 3.175,-3.4798 1.8796,0 3.1242,1.2192 3.1242,3.4798 z m 6.66959,-11.0236 v 18.796 h 3.556 v -5.9944 l 4.7752,5.9944 h 4.6228 l -6.2484,-7.0104 6.1976,-7.0612 h -4.6228 l -4.7244,5.969 v -10.6934 z"
         id="path4" />
    </g>
    <path
       style="fill:#0d1d3d;stroke:none;stroke-width:0.063578"
       d="m 27.352062,37.612697 c -2.275094,0.298643 -4.262156,1.193754 -5.885516,2.816382 -0.525777,0.52554 -0.816558,1.332212 -1.357359,1.805811 -0.456643,0.399903 -1.244764,0.563345 -1.777695,0.876456 -1.148122,0.674556 -2.139087,1.583841 -2.873869,2.688213 -0.636297,0.95635 -1.094495,2.033574 -1.309428,3.159105 -0.10155,0.531792 0.0059,1.360605 -0.2328,1.832281 -0.322673,0.637832 -1.028343,1.16447 -1.436688,1.769099 -1.018421,1.507956 -1.613459,3.305191 -1.693826,5.117752 -0.0555,1.251654 0.130635,2.538858 0.531995,3.727743 0.185398,0.549183 0.695298,1.20413 0.743964,1.7691 0.05223,0.606332 -0.423141,1.461641 -0.526515,2.085009 -0.254183,1.532784 -0.192378,3.134417 0.32674,4.612295 0.439734,1.251879 1.166606,2.370214 2.066967,3.348601 0.373392,0.40575 1.071141,0.72423 1.331097,1.202997 0.218202,0.401865 0.190787,1.00806 0.32373,1.450701 0.279714,0.931311 0.707502,1.78674 1.256066,2.590465 0.867976,1.271712 2.059872,2.296605 3.411838,3.041468 0.524195,0.288807 1.16321,0.425532 1.662429,0.739563 0.645702,0.40617 1.154288,1.122454 1.792256,1.579845 1.646623,1.180545 3.908509,1.93959 5.949736,1.624605 0.574933,-0.08872 1.138641,-0.26115 1.663369,-0.508433 3.778634,-1.780705 2.814932,-6.641616 2.814932,-10.015245 V 53.002319 45.862741 c 0,-1.197468 0.12945,-2.47625 -0.01832,-3.664562 -0.404478,-3.252657 -3.667305,-4.991854 -6.763108,-4.585482 m 13.115008,5.1e-5 c -0.68949,0.0927 -1.344978,0.253584 -1.983243,0.533049 -3.767384,1.649549 -3.070833,5.776434 -3.070833,9.10695 v 29.37968 c 0,2.855585 -0.569549,6.196973 2.23915,8.002338 0.455295,0.292658 0.950846,0.518663 1.47144,0.671258 0.606206,0.177697 1.28691,0.28383 1.919268,0.224362 1.766066,-0.166095 3.423873,-0.726502 4.862151,-1.76818 0.593585,-0.429905 1.05291,-1.13271 1.66589,-1.50116 0.467485,-0.281001 1.046827,-0.398826 1.532895,-0.656785 1.428753,-0.758223 2.707945,-1.809993 3.624598,-3.139553 0.553353,-0.802615 0.958481,-1.658764 1.23528,-2.590465 0.12867,-0.433101 0.09403,-1.057277 0.322995,-1.442222 0.338783,-0.569577 1.190198,-1.012209 1.644015,-1.527337 1.01317,-1.15006 1.697533,-2.557264 2.023375,-4.043655 0.273068,-1.245655 0.243866,-2.604258 0.01523,-3.85411 -0.102135,-0.558249 -0.506449,-1.279857 -0.474042,-1.832279 0.03715,-0.633172 0.634205,-1.397487 0.828432,-2.021827 0.441008,-1.417626 0.562556,-2.954511 0.349098,-4.422749 -0.219697,-1.51116 -0.782707,-2.96098 -1.636215,-4.233199 -0.382308,-0.569859 -1.200981,-1.148706 -1.432592,-1.769102 -0.14928,-0.399859 -0.0727,-0.962466 -0.14034,-1.390005 -0.156443,-0.988833 -0.45749,-1.960717 -0.941618,-2.843196 -0.71949,-1.311499 -1.764993,-2.444851 -3.051085,-3.234037 -0.608525,-0.373408 -1.503867,-0.582606 -2.033603,-1.030708 -0.639303,-0.540797 -0.977155,-1.510502 -1.613947,-2.110994 -1.877895,-1.770846 -4.744923,-2.857143 -7.356269,-2.506074 m -8.316856,23.792791 h -8.38081 c -0.688302,0 -2.427365,0.307832 -2.90112,-0.266233 -0.285131,-0.345501 -0.169713,-0.960959 -0.169713,-1.376501 v -3.411834 h 6.013713 c 0.682818,0 1.781409,0.04806 1.847593,-0.88455 0.06629,-0.934036 -0.960403,-1.074096 -1.655667,-1.074096 h -6.205639 v -3.790927 c 0,-0.462332 -0.129,-1.114653 0.322692,-1.415064 0.409633,-0.272442 1.247449,-0.08316 1.724529,-0.1038 1.695214,-0.07331 3.727881,0.257397 5.373955,-0.13899 0.727161,-0.175106 1.353835,-0.734909 1.592677,-1.438076 0.924381,-2.721427 -3.890239,-3.265366 -3.703874,-0.442275 -1.987428,0.580181 -4.614039,-0.759573 -6.332652,0.769839 -1.041567,0.9269 -0.896597,2.20872 -0.896597,3.463362 v 7.960946 c 0,1.355661 -0.09023,2.688874 1.151562,3.583048 1.057218,0.761271 2.542158,0.523791 3.774563,0.523791 h 8.444788 v 13.710513 c 0,1.67091 0.449857,4.1152 -0.837654,5.431128 -1.74494,1.78345 -4.859665,0.847488 -6.583522,-0.454658 -0.594329,-0.448938 -1.014012,-1.262733 -1.663368,-1.59988 -0.538175,-0.279425 -1.175324,-0.38483 -1.727343,-0.666627 -1.43469,-0.732413 -2.649458,-1.911794 -3.373433,-3.341783 -0.290719,-0.574225 -0.507123,-1.201324 -0.627613,-1.832281 -0.07929,-0.415217 -0.02976,-0.961221 -0.268589,-1.325897 -0.346456,-0.529027 -1.094443,-0.815899 -1.54129,-1.270222 -1.052451,-1.070055 -1.826136,-2.487085 -2.039817,-3.97482 -0.157856,-1.099059 -0.10224,-2.218407 0.219768,-3.285469 0.13698,-0.453936 0.709188,-1.152302 0.650074,-1.606367 -0.07655,-0.587964 -0.664119,-1.249038 -0.896992,-1.805467 -0.455855,-1.089219 -0.636554,-2.238381 -0.630822,-3.411833 0.008,-1.631902 0.605826,-3.310761 1.592629,-4.612294 0.435639,-0.574581 1.19556,-1.064439 1.505501,-1.705917 0.267201,-0.553017 0.09994,-1.412904 0.183042,-2.021828 0.170586,-1.250032 0.784881,-2.489137 1.650681,-3.411833 0.621603,-0.662451 1.339818,-1.233138 2.169397,-1.622501 0.516582,-0.242458 1.383756,-0.343444 1.755677,-0.785245 0.562228,-0.667862 0.771118,-1.501419 1.443154,-2.138879 1.878069,-1.781431 6.010455,-3.086386 8.119086,-0.947685 1.392259,1.412111 0.901434,4.012785 0.901434,5.81022 v 14.910978 m 5.246008,1.958647 h 2.750951 c 0.356952,0 0.88908,-0.09627 1.215535,0.06493 0.664985,0.32837 1.267407,1.186751 1.79132,1.704162 1.41255,1.395029 2.766201,2.934714 4.286373,4.214189 0.849355,0.714871 1.665273,0.12504 2.5456,0.499408 0.467648,0.198878 0.684116,0.82178 1.228961,1.031588 2.286405,0.880459 3.872437,-2.401083 1.727344,-3.626735 -0.733342,-0.419011 -1.606605,-0.318478 -2.239099,0.230988 -0.237618,0.206429 -0.441225,0.646578 -0.724815,0.771545 -0.29547,0.1302 -0.875411,0.06186 -1.194501,0.03442 -0.550118,-0.0473 -1.04106,-0.771714 -1.40747,-1.133576 -1.121868,-1.107957 -2.541621,-2.194893 -3.454686,-3.475018 h 3.518666 c 0.50088,0 1.169283,-0.11556 1.651563,0.02009 0.287005,0.08071 0.490578,0.47007 0.715585,0.654148 0.496965,0.406568 1.16849,0.5564 1.791267,0.389822 2.038458,-0.545234 2.003474,-3.695699 -0.191929,-3.958778 -0.621198,-0.07443 -1.200983,0.07569 -1.663118,0.499703 -0.214462,0.19677 -0.43234,0.64977 -0.717403,0.732201 -0.430745,0.12456 -1.010345,0.0102 -1.458015,0.02101 -1.043832,0.02526 -2.086782,0.06227 -3.134808,0.06227 0.879126,-1.232541 2.244373,-2.342829 3.326733,-3.411834 0.3561,-0.351705 0.839617,-1.055621 1.34349,-1.180376 0.348568,-0.08631 1.130488,-0.112995 1.465716,0.01805 0.329307,0.12873 0.537795,0.529592 0.837405,0.722207 0.821329,0.528019 1.882417,0.36558 2.553055,-0.320588 1.460198,-1.494009 -0.259627,-4.118326 -2.233173,-3.290542 -0.36348,0.152455 -0.683872,0.39414 -0.925773,0.702658 -0.156342,0.199392 -0.247534,0.523269 -0.495319,0.629724 -0.773385,0.332268 -1.622684,-0.189733 -2.353473,0.401957 -1.84335,1.492489 -3.171209,3.679365 -5.118056,5.033752 v -4.043655 c 0,-0.534966 -0.14952,-1.328385 0.0386,-1.832281 0.209397,-0.560889 1.010355,-1.098966 1.432838,-1.516368 1.065457,-1.052648 2.037768,-2.258138 3.198787,-3.212688 0.35031,-0.288012 0.79782,-0.05591 1.215536,-0.07531 0.69708,-0.0324 1.31833,-0.474677 1.642635,-1.071561 1.09642,-2.017988 -1.792076,-3.820209 -3.294158,-2.147951 -0.31821,0.35427 -0.484953,0.791397 -0.51027,1.263399 -0.01365,0.253247 0.10584,0.516761 -0.01523,0.758186 -0.227343,0.453427 -0.790477,0.845658 -1.149735,1.20046 -0.817326,0.807195 -1.614153,1.806777 -2.559021,2.464103 0,-1.750745 -0.285712,-3.767283 0.0094,-5.490944 0.05151,-0.300801 0.421968,-0.479596 0.609251,-0.701146 0.382242,-0.452178 0.56175,-1.060044 0.435735,-1.642492 -0.420828,-1.945106 -3.209118,-1.972679 -3.791294,-0.12636 -0.190932,0.605524 -0.0304,1.289236 0.383358,1.769048 0.18461,0.21408 0.536607,0.394413 0.651507,0.652394 0.112935,0.253569 0.03861,0.65496 0.03861,0.927208 V 61.40556 h -3.77455 V 46.557756 c 0,-1.773152 -0.50136,-4.397662 0.850888,-5.80198 2.017553,-2.09524 6.092093,-1.041864 7.977753,0.689883 0.746793,0.685841 1.020338,1.5206 1.626146,2.266172 0.362257,0.445831 1.066159,0.520146 1.572637,0.743902 0.826961,0.36534 1.61031,0.879728 2.233421,1.533627 0.935452,0.981663 1.544013,2.212269 1.769205,3.537955 0.111735,0.657723 -0.0595,1.474452 0.21784,2.085009 0.293352,0.645786 1.047968,1.135974 1.480085,1.705917 0.951265,1.254678 1.584914,2.906609 1.592624,4.485929 0.0058,1.187607 -0.0939,2.298889 -0.550407,3.411834 -0.24517,0.59772 -0.874574,1.26787 -0.960422,1.895463 -0.06711,0.490564 0.479125,1.110672 0.631465,1.579554 0.301032,0.926566 0.40251,2.002321 0.285372,2.969559 -0.188967,1.560318 -0.847609,3.038205 -1.965919,4.170018 -0.49116,0.497089 -1.274021,0.853174 -1.684646,1.395907 -0.26041,0.344193 -0.214938,0.853042 -0.281917,1.257742 -0.11169,0.674796 -0.305981,1.342394 -0.608066,1.958645 -0.711997,1.452477 -1.912552,2.638999 -3.37417,3.360742 -0.553925,0.273525 -1.178675,0.359652 -1.727097,0.62285 -0.669453,0.32128 -1.120808,1.21501 -1.727591,1.675743 -1.670962,1.268763 -4.817868,2.157145 -6.519543,0.463627 -1.285803,-1.279635 -0.837658,-3.727533 -0.837658,-5.364775 v -13.83688 m 4.478529,-18.168075 c 0.7089,-0.171937 0.963972,0.908657 0.255409,1.08053 -0.700077,0.169813 -0.961447,-0.909285 -0.255409,-1.08053 m 6.589297,2.963902 c 0.873498,-0.152001 1.038479,1.15625 0.191876,1.279635 -0.823608,0.12003 -1.017038,-1.136044 -0.191876,-1.279635 m 3.966441,7.662144 c 0.958313,-0.03104 1.029228,1.419899 0.06397,1.458897 -0.950542,0.03842 -1.00245,-1.428501 -0.06397,-1.458897 m -1.407468,6.242597 c 0.957896,-0.10491 1.105458,1.40098 0.12795,1.474351 -0.93973,0.07053 -1.054825,-1.372827 -0.12795,-1.474351 M 26.45637,67.786944 c -0.851951,0.841383 -1.723857,1.667295 -2.55651,2.527284 -0.453308,0.468189 -0.869909,1.05432 -1.409984,1.430618 -0.290904,0.20269 -0.748426,0.06461 -1.087585,0.09165 -0.56927,0.04541 -1.100024,0.400309 -1.393791,0.878649 -1.09193,1.777988 1.310631,3.738539 2.928961,2.493842 0.540309,-0.415567 0.720222,-0.957811 0.70304,-1.609293 -0.006,-0.229908 -0.180299,-0.576897 -0.06759,-0.784997 0.235827,-0.435384 0.803424,-0.825344 1.156105,-1.17365 l 2.559026,-2.527282 v 4.296385 c 0,0.488982 0.15949,1.305073 -0.03861,1.755643 -0.241065,0.548303 -0.927689,0.700235 -1.079835,1.403459 -0.460655,2.129164 2.54971,3.408526 3.595961,1.390011 0.344367,-0.664379 0.296741,-1.563921 -0.195477,-2.147952 -0.194749,-0.231075 -0.643961,-0.409277 -0.726292,-0.701877 -0.180679,-0.64212 -0.02034,-1.537937 -0.02034,-2.204742 0,-1.383723 -0.206272,-2.929318 0.0095,-4.296385 0.04933,-0.312584 0.331957,-0.498467 0.487963,-0.758184 0.355746,-0.592236 0.268158,-1.411887 -0.24751,-1.882007 -0.455101,-0.414907 -1.181026,-0.504544 -1.721322,-0.197394 -0.277803,0.157928 -0.427704,0.466089 -0.768691,0.496148 -2.17914,0.192066 -4.463726,0.0037 -6.652533,0.0037 -0.273195,-1.793327 -2.971131,-1.86614 -3.576615,-0.252729 -0.434208,1.157016 0.23004,2.486374 1.529394,2.641992 0.502869,0.06023 0.996111,-0.0621 1.407415,-0.354078 0.231411,-0.164282 0.411011,-0.462021 0.706299,-0.509459 0.668226,-0.10734 1.431413,-0.0093 2.108679,-0.0093 h 4.350347 m 25.334608,0.593793 c 0.875365,-0.189219 1.160568,1.0907 0.319582,1.311518 -0.846277,0.222213 -1.1739,-1.126848 -0.319582,-1.311518 m -9.084792,8.062098 c 0,-0.774228 -0.252615,-2.056761 0.03861,-2.774114 0.100515,-0.247627 0.414274,-0.393549 0.598384,-0.577078 0.341685,-0.340591 0.541121,-0.782664 0.572771,-1.261102 0.124005,-1.874346 -2.344676,-2.807733 -3.555783,-1.389081 -0.333548,0.390699 -0.519218,1.007923 -0.440771,1.515445 0.06256,0.404829 0.216453,0.766415 0.495518,1.073169 0.183888,0.202135 0.532,0.364867 0.607575,0.638647 0.227932,0.825719 0.02032,1.980087 0.02032,2.837295 0,0.390531 -0.07863,0.875279 0.21715,1.186032 0.316185,0.332183 0.89994,0.267158 1.318263,0.267158 1.019555,0 2.326755,-0.314735 3.32007,-0.04309 0.252723,0.06912 0.36138,0.367866 0.530318,0.542653 0.272725,0.282162 0.62871,0.43416 1.011765,0.505362 0.560512,0.104175 1.157365,-0.02517 1.598452,-0.393867 1.453196,-1.214743 0.233411,-3.561657 -1.598452,-3.235353 -0.755183,0.13452 -0.93758,0.827129 -1.542083,1.069808 -0.284277,0.11412 -0.714393,0.03813 -1.016943,0.03813 h -2.17521 M 41.74676,71.100107 c 0.778256,-0.202635 1.156856,0.951774 0.382616,1.194706 -0.807168,0.253269 -1.173531,-0.988773 -0.382616,-1.194706 m 6.013514,5.566072 c 0.669072,-0.04439 0.732829,0.984891 0.06387,1.014033 -0.653025,0.02846 -0.722273,-0.970364 -0.06387,-1.014033 z"
       id="path1" />
  </g>
</svg>
