<?xml version="1.0" encoding="UTF-8" standalone="no"?>
<!-- Created with Inkscape (http://www.inkscape.org/) -->

<svg
   width="562.30109"
   height="163.1422"
   viewBox="0 0 562.30108 163.1422"
   version="1.1"
   id="svg1"
   inkscape:version="1.4.2 (ebf0e940d0, 2025-05-08)"
   sodipodi:docname="logo.svg"
   xmlns:inkscape="http://www.inkscape.org/namespaces/inkscape"
   xmlns:sodipodi="http://sodipodi.sourceforge.net/DTD/sodipodi-0.dtd"
   xmlns="http://www.w3.org/2000/svg"
   xmlns:svg="http://www.w3.org/2000/svg">
  <sodipodi:namedview
     id="namedview1"
     pagecolor="#ffffff"
     bordercolor="#000000"
     borderopacity="0.25"
     inkscape:showpageshadow="2"
     inkscape:pageopacity="0.0"
     inkscape:pagecheckerboard="0"
     inkscape:deskcolor="#d1d1d1"
     inkscape:document-units="px"
     inkscape:zoom="3.5957031"
     inkscape:cx="249.60348"
     inkscape:cy="241.81641"
     inkscape:window-width="3840"
     inkscape:window-height="2092"
     inkscape:window-x="0"
     inkscape:window-y="0"
     inkscape:window-maximized="1"
     inkscape:current-layer="layer1"
     inkscape:lockguides="true"
     showgrid="true">
    <inkscape:grid
       id="grid1"
       units="px"
       originx="-54.263993"
       originy="-14.132023"
       spacingx="1"
       spacingy="1"
       empcolor="#0099e5"
       empopacity="0.30196078"
       color="#0099e5"
       opacity="0.14901961"
       empspacing="5"
       enabled="true"
       visible="true" />
  </sodipodi:namedview>
  <defs
     id="defs1" />
  <g
     inkscape:label="Layer 1"
     inkscape:groupmode="layer"
     id="layer1"
     transform="translate(-54.263992,-14.132022)">
    <g
       id="layer1-1"
       transform="translate(-218.13614,-287.0016)"
       style="fill:#16213e;fill-opacity:1;stroke:none">
      <path
         d="m 361.26114,329.06931 6.21874,-6.19271 c 12.21355,-12.17188 32.09896,-12.46874 44.38022,-0.375 9.80208,9.65626 11.84374,24.19791 6.11978,35.89063 -2.8177,5.75 -1.67708,12.65104 2.86459,17.17186 17.11978,-17.05729 17.08853,-44.8229 -0.0885,-61.83853 -17.17708,-17.02084 -45.0625,-16.68229 -62.1875,0.38542 l -59.28646,59.07291 -4.875,-4.85938 c -12.42187,-12.3802 -12.5052,-32.60937 0.14063,-44.76561 9.79166,-9.41147 24.26562,-11.21355 35.84374,-5.39584 5.45833,2.7448 12.04688,1.78125 16.3698,-2.52604 l 0.15104,-0.15104 c 0.19792,-0.19271 0.19792,-0.51563 -0.005,-0.70834 -16.92698,-16.48437 -44.04676,-16.55208 -61.05719,-0.1927 -17.68228,17.01041 -17.61978,45.30208 -0.23437,62.62499 l 59.27084,59.05208 -6.29688,6.27604 c -12.21875,12.16667 -32.10416,12.46875 -44.38541,0.36979 -9.80208,-9.65624 -11.84375,-24.19791 -6.1198,-35.88541 2.81772,-5.75 1.68229,-12.64583 -2.86458,-17.17187 -17.1198,17.04687 -17.09374,44.81771 0.0833,61.83333 17.17708,17.02083 45.06249,16.68228 62.18749,-0.38542 l 59.3698,-59.15104 4.89061,4.875 c 12.21355,12.17188 12.51563,31.98437 0.375,44.22396 -9.69271,9.76562 -24.29167,11.79688 -36.02083,6.09374 -5.77604,-2.80729 -12.69792,-1.67186 -17.23958,2.85418 17.1198,17.05729 44.98958,17.02604 62.0677,-0.0885 17.08333,-17.11458 16.73959,-44.89582 -0.38541,-61.96353 z m -7.52604,98.36458 -45.59896,-45.43229 44.27082,-44.10937 45.59896,45.43749 z m 0,0"
         style="fill:#16213e;fill-opacity:1;stroke:none;stroke-width:1.33333"
         id="path1" />
    </g>
    <path
       style="font-weight:600;font-size:85.3333px;font-family:Poppins;-inkscape-font-specification:'Poppins Semi-Bold';letter-spacing:-1px;opacity:0.999966;fill:#16213e;stroke-width:7"
       d="M 260.44798,78.849781 V 69.121785 H 225.888 v 59.647975 h 34.55998 v -9.728 H 237.83466 V 103.2551 h 20.05332 V 93.783108 H 237.83466 V 78.849781 Z m 11.71463,-9.04533 v 11.690662 h -5.632 v 9.813329 h 5.632 v 22.783988 c 0,10.83733 6.05866,14.67733 15.10399,14.67733 h 7.50933 v -10.06933 h -5.54666 c -3.75467,0 -5.03467,-1.36533 -5.03467,-4.52266 V 91.308442 h 10.58133 V 81.495113 H 284.1946 V 69.804451 Z m 30.23203,-4.181331 v 63.14664 h 11.94666 v -26.11199 c 0,-7.594662 4.18133,-11.690661 10.66666,-11.690661 6.31466,0 10.49599,4.095999 10.49599,11.690661 v 26.11199 h 11.94667 v -27.73332 c 0,-13.055996 -7.76533,-20.223993 -18.432,-20.223993 -6.31466,0 -11.60532,2.559999 -14.67732,6.570664 V 65.62312 Z m 76.39724,63.91464 c 13.73867,0 24.66133,-9.55733 24.66133,-24.40532 0,-14.93333 -10.66666,-24.405326 -24.31999,-24.405326 -13.65333,0 -24.31999,9.471996 -24.31999,24.405326 0,14.84799 10.32533,24.40532 23.97865,24.40532 z m 0,-10.41066 c -6.39999,0 -11.86132,-4.608 -11.86132,-13.99466 0,-9.471999 5.71733,-13.994664 12.03199,-13.994664 6.31467,0 12.20266,4.522665 12.20266,13.994664 0,9.38666 -6.05866,13.99466 -12.37333,13.99466 z m 50.54135,10.41066 c 11.51999,0 18.60265,-6.144 18.60265,-14.25066 -0.34133,-17.32266 -26.53865,-11.94666 -26.53865,-20.565326 0,-2.730665 2.304,-4.522664 6.74133,-4.522664 4.69333,0 7.59466,2.474665 7.936,6.143997 h 11.43466 c -0.68267,-9.386663 -7.59467,-15.615993 -19.02933,-15.615993 -11.69066,0 -18.68799,6.314664 -18.68799,14.165327 0,17.322659 26.70932,11.946659 26.70932,20.394659 0,2.73066 -2.56,4.864 -7.25333,4.864 -4.77866,0 -8.10666,-2.73067 -8.53333,-6.31467 h -12.03199 c 0.512,8.78933 8.78933,15.70133 20.65066,15.70133 z m 39.36265,-60.330642 h -11.94666 v 59.562642 h 31.57332 v -9.472 h -19.62666 z m 26.22129,12.287995 v 47.274647 h 11.94666 V 81.495113 Z m 6.05867,-5.631997 c 4.18133,0 7.33866,-3.071999 7.33866,-6.997331 0,-3.925332 -3.15733,-6.99733 -7.33866,-6.99733 -4.26667,0 -7.33867,3.071998 -7.33867,6.99733 0,3.925332 3.072,6.997331 7.33867,6.997331 z m 49.77331,26.794654 v 26.11199 h 11.94666 v -27.73332 c 0,-13.055996 -7.85066,-20.223993 -18.85866,-20.223993 -6.05866,0 -11.17866,2.559999 -14.25066,6.570664 v -5.887998 h -11.94666 v 47.274647 h 11.94666 v -26.11199 c 0,-7.594662 4.18133,-11.690661 10.66666,-11.690661 6.31467,0 10.496,4.095999 10.496,11.690661 z m 22.29592,-37.03465 v 63.14664 h 11.94666 V 108.6311 l 16.04266,20.13866 h 15.53066 l -20.99199,-23.55199 20.82133,-23.722657 h -15.53066 l -15.872,20.053327 V 65.62312 Z"
       id="text1"
       aria-label="EthosLink" />
  </g>
</svg>
