<?xml version="1.0" encoding="UTF-8" standalone="no"?>
<!-- Created with Inkscape (http://www.inkscape.org/) -->

<svg
   width="256mm"
   height="256mm"
   viewBox="0 0 256 256"
   version="1.1"
   id="svg1"
   sodipodi:docname="brain.svg"
   inkscape:version="1.4.2 (ebf0e940d0, 2025-05-08)"
   xmlns:inkscape="http://www.inkscape.org/namespaces/inkscape"
   xmlns:sodipodi="http://sodipodi.sourceforge.net/DTD/sodipodi-0.dtd"
   xmlns="http://www.w3.org/2000/svg"
   xmlns:svg="http://www.w3.org/2000/svg">
  <sodipodi:namedview
     id="namedview1"
     pagecolor="#ffffff"
     bordercolor="#000000"
     borderopacity="0.25"
     inkscape:showpageshadow="2"
     inkscape:pageopacity="0.0"
     inkscape:pagecheckerboard="0"
     inkscape:deskcolor="#d1d1d1"
     inkscape:document-units="mm"
     inkscape:zoom="1.6445146"
     inkscape:cx="378.53115"
     inkscape:cy="485.24957"
     inkscape:window-width="3840"
     inkscape:window-height="2092"
     inkscape:window-x="0"
     inkscape:window-y="0"
     inkscape:window-maximized="1"
     inkscape:current-layer="layer1" />
  <defs
     id="defs1" />
  <g
     inkscape:label="Layer 1"
     inkscape:groupmode="layer"
     id="layer1"
     transform="translate(-4.778958,-39.43158)">
    <path
       style="fill:#0d1d3d;stroke:none;stroke-width:0.339081"
       d="m 93.188463,39.781987 c -12.133828,1.592756 -22.731498,6.36669 -31.389417,15.020705 -2.804142,2.802884 -4.354979,7.105129 -7.239248,9.630995 -2.435438,2.132808 -6.638746,3.004504 -9.48104,4.674428 -6.123328,3.597637 -11.408471,8.447153 -15.327308,14.337138 -3.393586,5.100536 -5.837302,10.845729 -6.983615,16.848567 -0.541612,2.83622 0.03101,7.25656 -1.241607,9.77217 -1.720918,3.40177 -5.484493,6.2105 -7.662336,9.43519 -5.4315711,8.04243 -8.6051103,17.62769 -9.0337333,27.29468 -0.2959877,6.67549 0.696762,13.54058 2.837306,19.8813 0.9887881,2.92898 3.7082583,6.42203 3.9678103,9.4352 0.27855,3.23377 -2.256756,7.79542 -2.8080834,11.12005 -1.3556399,8.17485 -1.0260159,16.7169 1.7426114,24.59891 2.345251,6.67669 6.221902,12.64115 11.023827,17.85922 1.991425,2.16399 5.712754,3.86255 7.09919,6.41598 1.16374,2.14328 1.01752,5.37632 1.726558,7.73707 1.491808,4.96699 3.773341,9.52929 6.699015,13.81582 4.62921,6.78245 10.985984,12.24856 18.196473,16.22117 2.795708,1.5403 6.203787,2.26949 8.866291,3.94433 3.443742,2.16625 6.156198,5.98643 9.5587,8.42584 8.781994,6.29624 20.845385,10.34446 31.731933,8.66453 3.06631,-0.47316 6.07275,-1.3928 8.8713,-2.71162 20.15271,-9.49709 15.01296,-35.42195 15.01296,-53.41464 V 121.85998 83.782224 c 0,-6.386495 0.69042,-13.206667 -0.0976,-19.544335 C 127.10124,46.890388 109.6995,37.614666 93.188547,39.781987 m 69.946733,2.67e-4 c -3.67728,0.49437 -7.17323,1.352451 -10.57731,2.842929 -20.09271,8.797595 -16.37777,30.807658 -16.37777,48.570409 V 247.88725 c 0,15.22978 -3.0376,33.05053 11.94213,42.67912 2.42825,1.56083 5.07118,2.76619 7.84768,3.58006 3.23311,0.94773 6.86352,1.51374 10.2361,1.19657 9.41903,-0.88583 18.26067,-3.87467 25.93149,-9.43026 3.16577,-2.29282 5.61552,-6.04113 8.88472,-8.00619 2.49328,-1.49867 5.58308,-2.12707 8.17545,-3.50285 7.62002,-4.04386 14.44238,-9.65331 19.3312,-16.74429 2.95122,-4.28062 5.1119,-8.84674 6.58816,-13.81582 0.68624,-2.30987 0.50147,-5.6388 1.72262,-7.69185 1.80684,-3.03774 6.34773,-5.39845 8.76808,-8.1458 5.40359,-6.13365 9.05353,-13.63875 10.79135,-21.56616 1.45636,-6.6435 1.30062,-13.88938 0.0811,-20.55526 -0.54469,-2.97733 -2.70107,-6.82591 -2.52823,-9.77216 0.19812,-3.37692 3.38241,-7.45326 4.41829,-10.78308 2.35204,-7.56067 3.00031,-15.75739 1.86187,-23.58799 -1.17172,-8.05952 -4.17445,-15.7919 -8.72649,-22.57707 -2.03896,-3.03925 -6.40524,-6.12643 -7.64049,-9.43521 -0.79616,-2.13258 -0.38773,-5.13315 -0.74849,-7.41336 -0.83437,-5.273779 -2.43994,-10.457159 -5.02197,-15.163713 -3.83726,-6.994663 -9.4133,-13.039209 -16.27245,-17.248204 -3.24546,-1.991512 -8.02062,-3.107235 -10.84587,-5.497112 -3.40963,-2.884247 -5.21151,-8.056008 -8.60774,-11.258634 -10.01542,-9.444512 -25.30625,-15.2381 -39.23342,-13.365733 M 118.77873,166.67716 H 74.081069 c -3.670942,0 -12.945947,1.64177 -15.472643,-1.41991 -1.520693,-1.84267 -0.905135,-5.12511 -0.905135,-7.34134 v -18.19645 h 32.07314 c 3.641694,0 9.500849,0.25631 9.853835,-4.7176 0.353528,-4.98153 -5.122155,-5.72851 -8.830224,-5.72851 H 57.703291 v -20.21828 c 0,-2.46577 -0.68801,-5.94482 1.721023,-7.54701 2.184711,-1.45303 6.653066,-0.44353 9.197489,-0.55357 9.04115,-0.39098 19.882036,1.37278 28.661103,-0.74127 3.878194,-0.933895 7.220454,-3.919518 8.494284,-7.669742 4.93003,-14.514282 -20.747953,-17.415292 -19.754003,-2.3588 -10.599618,3.0943 -24.608214,-4.051059 -33.774156,4.10581 -5.555024,4.943466 -4.781848,11.779842 -4.781848,18.471272 v 42.45838 c 0,7.23019 -0.481223,14.34066 6.141665,19.10959 5.638502,4.06011 13.558183,2.79355 20.131009,2.79355 h 45.038873 v 73.12276 c 0,8.91152 2.39924,21.94773 -4.46749,28.966 -9.30634,9.51175 -25.918215,4.51995 -35.112117,-2.42482 -3.169757,-2.39434 -5.408069,-6.73459 -8.871298,-8.53271 -2.870263,-1.49025 -6.268393,-2.05241 -9.212498,-3.55535 -7.651684,-3.90619 -14.13044,-10.19622 -17.991645,-17.82283 -1.550503,-3.06254 -2.704659,-6.40706 -3.347273,-9.77217 -0.422886,-2.21449 -0.158747,-5.12652 -1.432471,-7.07145 -1.847772,-2.82148 -5.837036,-4.35147 -8.220219,-6.77452 -5.613069,-5.70696 -9.739396,-13.26446 -10.879025,-21.19905 -0.841898,-5.86165 -0.545314,-11.8315 1.172097,-17.5225 0.730597,-2.421 3.782337,-6.14561 3.467066,-8.56729 -0.40824,-3.13581 -3.54197,-6.66154 -4.783961,-9.62916 -2.431228,-5.80917 -3.394949,-11.93804 -3.364388,-18.19645 0.04251,-8.70348 3.231074,-17.65739 8.494025,-24.5989 2.323409,-3.06444 6.376326,-5.67701 8.029344,-9.09823 1.425067,-2.94942 0.533032,-7.53549 0.976217,-10.78308 0.909799,-6.666844 4.186039,-13.275402 8.803632,-18.196449 3.315224,-3.533077 7.1457,-6.57674 11.570122,-8.653339 2.755109,-1.293115 7.380037,-1.831706 9.363616,-4.187974 2.998551,-3.561933 4.112627,-8.007573 7.696818,-11.407355 10.016376,-9.50097 32.055768,-16.460731 43.301798,-5.054324 7.42538,7.531261 4.80765,21.401525 4.80765,30.987848 v 79.525223 m 27.97871,10.44612 h 14.67175 c 1.90373,0 4.74176,-0.51344 6.48286,0.34632 3.54659,1.75131 6.7595,6.32934 9.5537,9.08887 7.53359,7.44015 14.75308,15.65181 22.86065,22.47568 4.5299,3.81265 8.88147,0.66687 13.57654,2.66351 2.49412,1.06068 3.64862,4.38282 6.55446,5.5018 12.19417,4.69578 20.65301,-12.80578 9.2125,-19.34259 -3.91115,-2.23473 -8.56855,-1.69855 -11.94185,1.23194 -1.26731,1.10095 -2.35321,3.44841 -3.86568,4.1149 -1.57584,0.69441 -4.66885,0.3299 -6.37069,0.18359 -2.93396,-0.25229 -5.55231,-4.11582 -7.50649,-6.04575 -5.98331,-5.9091 -13.55532,-11.70609 -18.425,-18.53343 h 18.76621 c 2.67137,0 6.23619,-0.6163 8.80835,0.10711 1.53069,0.43051 2.61641,2.50704 3.81645,3.48879 2.65048,2.16836 6.23195,2.96747 9.55343,2.07905 10.87178,-2.90791 10.68519,-19.71039 -1.02362,-21.11348 -3.31306,-0.39701 -6.40524,0.40367 -8.86997,2.66508 -1.1438,1.04944 -2.30582,3.46544 -3.82615,3.90507 -2.29731,0.66432 -5.38851,0.0543 -7.77609,0.11208 -5.56709,0.13472 -11.1295,0.33204 -16.71897,0.33204 4.68867,-6.57355 11.96999,-12.49509 17.74258,-18.19645 1.8992,-1.87576 4.47795,-5.62998 7.16527,-6.29534 1.85904,-0.46029 6.02928,-0.60265 7.81717,0.0962 1.75629,0.68653 2.86824,2.82449 4.46616,3.85177 4.38043,2.81611 10.03955,1.94976 13.61629,-1.7098 7.78772,-7.96805 -1.38468,-21.96441 -11.91026,-17.54956 -1.93855,0.8131 -3.64732,2.10208 -4.93746,3.74751 -0.83381,1.06343 -1.32018,2.79077 -2.64169,3.35853 -4.12472,1.7721 -8.65432,-1.01191 -12.55187,2.14377 -9.83119,7.95994 -16.91312,19.62328 -27.29628,26.84668 v -21.56615 c 0,-2.85315 -0.79743,-7.08472 0.20587,-9.77217 1.11678,-2.99141 5.38856,-5.86115 7.6418,-8.0873 5.68243,-5.61412 10.8681,-12.0434 17.06019,-17.13433 1.86832,-1.53607 4.25505,-0.29812 6.48286,-0.40169 3.71776,-0.17285 7.03111,-2.53161 8.76072,-5.715 5.84759,-10.7626 -9.55772,-20.374447 -17.56883,-11.455732 -1.69713,1.889438 -2.58641,4.220779 -2.72145,6.73813 -0.0725,1.350642 0.56449,2.756052 -0.0811,4.043652 -1.21249,2.41828 -4.21587,4.51018 -6.13191,6.40246 -4.35912,4.30504 -8.60886,9.63614 -13.64814,13.14188 0,-9.3373 -1.52381,-20.09218 0.0506,-29.285037 0.27475,-1.604274 2.25049,-2.557847 3.24932,-3.739446 2.03862,-2.411616 2.99601,-5.653567 2.32393,-8.759959 -2.24441,-10.373899 -17.1153,-10.520954 -20.22024,-0.673942 -1.0183,3.229466 -0.16215,6.875929 2.04458,9.434929 0.98457,1.141761 2.86189,2.10354 3.47469,3.479439 0.60231,1.352367 0.20588,3.493114 0.20588,4.94511 v 68.405196 h -20.131 V 87.488909 c 0,-9.456813 -2.67393,-23.454202 4.53806,-30.943896 10.76029,-11.174616 32.49117,-5.556612 42.54802,3.679372 3.98291,3.657817 5.44181,8.109872 8.67279,12.086253 1.93204,2.377763 5.68617,2.774111 8.3874,3.967476 4.41047,1.948485 8.58832,4.691888 11.91159,8.179348 4.98907,5.23554 8.23473,11.798767 9.43575,18.869098 0.59588,3.50786 -0.31735,7.86375 1.16183,11.12005 1.56453,3.44419 5.58913,6.05853 7.89375,9.09823 5.07342,6.69161 8.45289,15.50191 8.49402,23.92495 0.031,6.33391 -0.50081,12.26075 -2.93551,18.19645 -1.30759,3.18784 -4.66441,6.76198 -5.12227,10.10914 -0.35788,2.61634 2.55535,5.92358 3.36782,8.42429 1.60551,4.94169 2.14672,10.67905 1.52198,15.83765 -1.00781,8.3217 -4.52057,16.20377 -10.4849,22.2401 -2.6195,2.65115 -6.79476,4.55027 -8.98476,7.44484 -1.38887,1.8357 -1.14635,4.54957 -1.50356,6.70796 -0.59565,3.59891 -1.6319,7.15943 -3.24302,10.44611 -3.79732,7.74655 -10.20028,14.07466 -17.99559,17.92396 -2.95425,1.4588 -6.28625,1.91814 -9.21118,3.32187 -3.57041,1.71349 -5.97763,6.48005 -9.21381,8.93729 -8.91181,6.76674 -25.6953,11.50478 -34.7709,2.47268 -6.85761,-6.82472 -4.46751,-19.88017 -4.46751,-28.61214 V 177.12328 M 170.643,80.226873 c 3.78079,-0.917005 5.14119,4.846162 1.36218,5.762818 -3.73374,0.905672 -5.12771,-4.849516 -1.36218,-5.762818 m 35.14292,15.807479 c 4.65865,-0.810674 5.53854,6.166668 1.02334,6.824718 -4.39259,0.64017 -5.42419,-6.058902 -1.02334,-6.824718 m 21.15436,40.864778 c 5.11099,-0.16554 5.48922,7.57279 0.3412,7.78078 -5.06957,0.20483 -5.3464,-7.61867 -0.3412,-7.78078 m -7.50649,33.29385 c 5.10877,-0.55955 5.89577,7.4719 0.68241,7.86321 -5.0119,0.37617 -5.62575,-7.32175 -0.68241,-7.86321 M 88.411621,200.71126 c -4.543736,4.48738 -9.193902,8.89225 -13.634716,13.47885 -2.417643,2.49702 -4.639513,5.62305 -7.519912,7.62996 -1.551491,1.08102 -3.991612,0.34452 -5.800462,0.48882 -3.036106,0.24216 -5.86679,2.13499 -7.433549,4.68613 -5.82363,9.48261 6.99003,19.93888 15.621129,13.3005 2.88165,-2.21636 3.841181,-5.10833 3.749543,-8.58289 -0.03237,-1.22618 -0.961594,-3.07679 -0.360427,-4.18667 1.257748,-2.32204 4.284928,-4.40183 6.165896,-6.25945 l 13.64814,-13.47885 v 22.91405 c 0,2.60791 0.850613,6.9604 -0.205883,9.36344 -1.285681,2.92428 -4.947673,3.73459 -5.759121,7.48512 -2.456821,11.35555 13.598461,18.17881 19.178471,7.41338 1.83662,-3.54335 1.58261,-8.34091 -1.04255,-11.45574 -1.03866,-1.2324 -3.43446,-2.18281 -3.87356,-3.74335 -0.96362,-3.42463 -0.10846,-8.20232 -0.10846,-11.75862 0,-7.37985 -1.100119,-15.62303 0.0506,-22.91406 0.26312,-1.66711 1.77044,-2.65849 2.60247,-4.04365 1.89732,-3.15859 1.43018,-7.53006 -1.32005,-10.03737 -2.427209,-2.21284 -6.298811,-2.6909 -9.180384,-1.05277 -1.481621,0.84228 -2.281088,2.48581 -4.099692,2.64612 -11.62208,1.02436 -23.806537,0.0197 -35.480181,0.0197 -1.45704,-9.5644 -15.846037,-9.95274 -19.075284,-1.34788 -2.31577,6.17075 1.226883,13.26067 8.156769,14.09063 2.681969,0.32123 5.312594,-0.33118 7.506219,-1.88842 1.234187,-0.87617 2.192052,-2.46411 3.766932,-2.71711 3.563874,-0.57251 7.634202,-0.0499 11.246288,-0.0499 h 23.201849 m 135.117934,3.1669 c 4.66862,-1.00917 6.18969,5.81706 1.70443,6.99476 -4.51347,1.18513 -6.26078,-6.00986 -1.70443,-6.99476 M 175.0774,246.8763 c 0,-4.12921 -1.34727,-10.96939 0.20589,-14.79527 0.53613,-1.32068 2.20949,-2.09893 3.19141,-3.07775 1.82229,-1.81649 2.88597,-4.17421 3.05477,-6.72589 0.66132,-9.9965 -12.50493,-14.97457 -18.96418,-7.40842 -1.77891,2.08372 -2.76916,5.37559 -2.35078,8.08237 0.33373,2.15909 1.1544,4.08754 2.64275,5.72357 0.98074,1.07805 2.83733,1.94596 3.24039,3.40612 1.21565,4.40383 0.10846,10.56046 0.10846,15.13224 0,2.08283 -0.41938,4.66815 1.15815,6.3255 1.68633,1.77164 4.79967,1.42484 7.03073,1.42484 5.43763,0 12.40935,-1.67857 17.70704,-0.22985 1.34787,0.3686 1.92736,1.96196 2.82837,2.89416 1.45453,1.50485 3.35312,2.31552 5.39608,2.69525 2.98939,0.55564 6.17261,-0.13414 8.52508,-2.10063 7.75037,-6.47863 1.24486,-18.9955 -8.52508,-17.25521 -4.02765,0.71744 -5.00042,4.41135 -8.22445,5.70564 -1.51613,0.60867 -3.81011,0.20333 -5.42371,0.20333 H 175.0774 m -5.11673,-28.49514 c 4.1507,-1.08072 6.1699,5.07612 2.04064,6.37177 -4.3049,1.35076 -6.25885,-5.27346 -2.04064,-6.37177 m 32.07209,29.68572 c 3.56838,-0.2367 3.90842,5.25275 0.34067,5.40818 -3.48281,0.15173 -3.85212,-5.17528 -0.34067,-5.40818 z"
       id="path1" />
  </g>
</svg>
