<?xml version="1.0" encoding="UTF-8" standalone="no"?>
<!-- Created with Inkscape (http://www.inkscape.org/) -->

<svg
   width="264.60538mm"
   height="64.002876mm"
   viewBox="0 0 264.60538 64.002877"
   version="1.1"
   id="svg1"
   xml:space="preserve"
   xmlns="http://www.w3.org/2000/svg"
   xmlns:svg="http://www.w3.org/2000/svg"><defs
     id="defs1" /><g
     id="layer1"
     transform="translate(0.28478789,-108.02437)"><g
       transform="matrix(0.66510275,0,0,0.61361243,-1.5644456,108.31645)"
       stroke="#1f4e79"
       stroke-width="5.514"
       id="g2"><path
         d="m 50,2.281 c -24.99,0 -45.319,18.494 -45.319,41.227 0,16.197 10.332,30.225 25.306,36.962 L 26.218,97.719 45.846,84.547 c 1.369,0.119 2.753,0.19 4.154,0.19 24.988,0 45.318,-18.496 45.318,-41.229 C 95.318,20.775 74.988,2.281 50,2.281 Z m 0,76.794 c -2.204,0 -4.35,-0.202 -6.457,-0.517 l -4.107,3.16 -1.834,1.412 -3.136,2.414 0.926,-3.046 0.478,-1.56 1.175,-3.852 C 21.528,72.252 10.344,59.042 10.344,43.506 10.344,23.896 28.132,7.943 50,7.943 c 21.867,0 39.656,15.953 39.656,35.564 0,19.611 -17.789,35.568 -39.656,35.568 z"
         id="path1" /><path
         d="m 73.189,24.116 c -4.197,0 -7.596,3.401 -7.596,7.598 0,0.396 0.057,0.776 0.115,1.157 l -19.546,7.492 c -1.621,-2.491 -4.42,-4.147 -7.615,-4.147 -2.213,0 -4.217,0.823 -5.794,2.139 l -4.085,-3.054 c 0.167,-0.539 0.281,-1.102 0.281,-1.693 0,-3.175 -2.576,-5.751 -5.75,-5.751 -3.177,0 -5.753,2.576 -5.753,5.751 0,3.176 2.576,5.753 5.753,5.753 1.354,0 2.582,-0.486 3.564,-1.272 l 3.845,2.876 c -0.713,1.296 -1.155,2.764 -1.155,4.35 0,5.023 4.072,9.095 9.095,9.095 1.495,0 2.884,-0.396 4.127,-1.032 l 5.299,7.109 c -1.202,1.286 -1.953,3 -1.953,4.899 0,3.972 3.218,7.189 7.193,7.189 3.971,0 7.189,-3.218 7.189,-7.189 0,-3.975 -3.219,-7.193 -7.189,-7.193 -0.85,0 -1.653,0.173 -2.409,0.442 l -5.463,-7.329 c 1.416,-1.604 2.3,-3.685 2.3,-5.991 0,-0.627 -0.064,-1.237 -0.184,-1.829 L 66.933,36.02 c 1.373,1.985 3.658,3.292 6.256,3.292 4.197,0 7.596,-3.399 7.596,-7.597 0,-4.197 -3.398,-7.599 -7.596,-7.599 z"
         id="path2" /></g><path
       d="m 89.112443,160.168 -7.4168,-13.462 h -2.0828 v 13.462 h -8.6868 v -35.6616 h 14.5796 q 4.2164,0 7.1628,1.4732 2.9972,1.4732 4.4704,4.064 1.4732,2.54 1.4732,5.6896 0,3.556 -2.032,6.35 -1.9812,2.794 -5.8928,3.9624 l 8.2296,14.1224 z m -9.4996,-19.6088 h 5.3848 q 2.3876,0 3.556,-1.1684 1.2192,-1.1684 1.2192,-3.302 0,-2.032 -1.2192,-3.2004 -1.1684,-1.1684 -3.556,-1.1684 h -5.3848 z m 50.891037,4.9784 q 0,1.2192 -0.1524,2.54 h -19.6596 q 0.2032,2.6416 1.6764,4.064 1.524,1.3716 3.7084,1.3716 3.2512,0 4.5212,-2.7432 h 9.2456 q -0.7112,2.794 -2.5908,5.0292 -1.8288,2.2352 -4.6228,3.5052 -2.794,1.27 -6.2484,1.27 -4.1656,0 -7.4168,-1.778 -3.2512,-1.778 -5.08,-5.08 -1.8288,-3.302 -1.8288,-7.7216 0,-4.4196 1.778,-7.7216 1.8288,-3.302 5.08,-5.08 3.2512,-1.778 7.4676,-1.778 4.1148,0 7.3152,1.7272 3.2004,1.7272 4.9784,4.9276 1.8288,3.2004 1.8288,7.4676 z m -8.89,-2.286 q 0,-2.2352 -1.524,-3.556 -1.524,-1.3208 -3.81,-1.3208 -2.1844,0 -3.7084,1.27 -1.4732,1.27 -1.8288,3.6068 z m 25.94818,8.7884 6.1468,-20.2184 h 9.2456 l -10.0584,28.3464 h -10.7188 l -10.0584,-28.3464 h 9.2964 z m 23.15419,-23.1648 q -2.286,0 -3.7592,-1.3208 -1.4224,-1.3716 -1.4224,-3.3528 0,-2.032 1.4224,-3.3528 1.4732,-1.3716 3.7592,-1.3716 2.2352,0 3.6576,1.3716 1.4732,1.3208 1.4732,3.3528 0,1.9812 -1.4732,3.3528 -1.4224,1.3208 -3.6576,1.3208 z m 4.318,2.9464 v 28.3464 h -8.6868 v -28.3464 z m 4.30742,14.1224 q 0,-4.3688 1.6256,-7.6708 1.6764,-3.302 4.5212,-5.08 2.8448,-1.778 6.35,-1.778 2.9972,0 5.2324,1.2192 2.286,1.2192 3.5052,3.2004 v -4.0132 h 8.6868 v 28.3464 h -8.6868 v -4.0132 q -1.27,1.9812 -3.556,3.2004 -2.2352,1.2192 -5.2324,1.2192 -3.4544,0 -6.2992,-1.778 -2.8448,-1.8288 -4.5212,-5.1308 -1.6256,-3.3528 -1.6256,-7.7216 z m 21.2344,0.0508 q 0,-3.2512 -1.8288,-5.1308 -1.778,-1.8796 -4.3688,-1.8796 -2.5908,0 -4.4196,1.8796 -1.778,1.8288 -1.778,5.08 0,3.2512 1.778,5.1816 1.8288,1.8796 4.4196,1.8796 2.5908,0 4.3688,-1.8796 1.8288,-1.8796 1.8288,-5.1308 z m 30.52026,6.8072 v 7.366 h -4.4196 q -4.7244,0 -7.366,-2.286 -2.6416,-2.3368 -2.6416,-7.5692 v -11.2776 h -3.4544 v -7.2136 h 3.4544 v -6.9088 h 8.6868 v 6.9088 h 5.6896 v 7.2136 h -5.6896 v 11.3792 q 0,1.27 0.6096,1.8288 0.6096,0.5588 2.032,0.5588 z m 17.46462,7.7724 q -4.1656,0 -7.5184,-1.778 -3.302,-1.778 -5.2324,-5.08 -1.8796,-3.302 -1.8796,-7.7216 0,-4.3688 1.9304,-7.6708 1.9304,-3.3528 5.2832,-5.1308 3.3528,-1.778 7.5184,-1.778 4.1656,0 7.5184,1.778 3.3528,1.778 5.2832,5.1308 1.9304,3.302 1.9304,7.6708 0,4.3688 -1.9812,7.7216 -1.9304,3.302 -5.334,5.08 -3.3528,1.778 -7.5184,1.778 z m 0,-7.5184 q 2.4892,0 4.2164,-1.8288 1.778,-1.8288 1.778,-5.2324 0,-3.4036 -1.7272,-5.2324 -1.6764,-1.8288 -4.1656,-1.8288 -2.54,0 -4.2164,1.8288 -1.6764,1.778 -1.6764,5.2324 0,3.4036 1.6256,5.2324 1.6764,1.8288 4.1656,1.8288 z"
       id="text1"
       style="font-weight:bold;font-size:50.8px;font-family:Poppins;-inkscape-font-specification:'Poppins Bold';letter-spacing:-0.264583px;opacity:0.999966;fill:#1f4e79;stroke:#1f4e79;stroke-width:1.85208"
       aria-label="Reviato" /></g></svg>
